<?xml version="1.0" encoding="utf-8"?>
<!-- Generator: Adobe Illustrator 16.0.0, SVG Export Plug-In . SVG Version: 6.00 Build 0)  -->
<!DOCTYPE svg PUBLIC "-//W3C//DTD SVG 1.1//EN" "http://www.w3.org/Graphics/SVG/1.1/DTD/svg11.dtd">
<svg version="1.1" id="Ebene_1" xmlns="http://www.w3.org/2000/svg" xmlns:xlink="http://www.w3.org/1999/xlink" x="0px" y="0px"
	 width="841.891px" height="595.279px" viewBox="0 0 841.891 595.279" enable-background="new 0 0 841.891 595.279"
	 xml:space="preserve">
<text transform="matrix(1 0 0 1 418.8477 299.4219)" font-family="'ArialMT'" font-size="48">Ceph Storage</text>
<g>
	<g>
		<path fill="#005BAB" d="M304.567,262.992c-0.544-0.234-0.984-0.318-0.956-0.205c0,0-0.167,0.082,0.12,0.163
			c0,0,1.101,0.079,1.183,0.935c0,0,0.242,1.182-1.061,2.487c0,0-0.041-0.04,0,0.245c0.041,0.287-0.079,0.406-0.283,0.692
			s-0.979,1.222-1.184,1.508s-0.302,0.413-0.384,0.614c-0.082,0.201-0.387,0.276-0.635,0.486c-0.192,0.164-0.491,0.288-0.897,0.328
			c-0.406,0.041-0.894,0.079-1.098,0.242c-0.205,0.164-0.286,0.004-0.327-0.406c-0.041-0.408-0.123-1.92-0.123-2.121
			s-0.124-0.201-0.124-0.447c0-0.244,0.246-0.447,0.205-0.691c-0.041-0.246-0.044-0.693,0.447-0.938
			c0.491-0.245,1.592-0.654,2.244-0.938c0.651-0.282,1.262-0.528,1.467-1.019c0,0,0.123-0.202,0.205-0.161s0.044,0.488,0.205,0.406
			s0.12-0.003,0.161-0.245c0.041-0.243,0.123-0.324,0.41-0.284c0,0,0.591,0.176,0.591,0.055c0-0.123-0.312-0.281-0.588-0.371
			c-0.277-0.093-0.498-0.247-0.558-0.125c-0.06,0.125-0.154,0.186-0.308,0.186c-0.154,0-0.432-0.064-0.34,0.093
			c0.091,0.157,0.122,0.245,0,0.371c-0.124,0.126-0.066,0.031-0.249,0.031s-0.215-0.031-0.4-0.031c-0.186,0-0.246,0.004-0.154-0.245
			c0.091-0.248,0.186-0.279,0.186-0.435c0-0.154-0.186-0.186-0.34-0.154c-0.154,0.031-0.088,0.16-0.406,0.188
			c-0.255,0.022-0.459,0.092-0.459,0.092s-0.217-0.096-0.249,0.061c-0.031,0.152-0.154,0.185-0.308,0.185s-0.123-0.157,0.031-0.216
			c0.154-0.061,0.06-0.215-0.063-0.247c-0.123-0.031-0.123-0.185,0.063-0.217c0.186-0.031,0.325-0.088,0.432-0.308
			c0,0,0.062-0.123-0.246-0.123c-0.309,0-1.64,0.09-1.882,0.09s-0.377,0-0.377,0.174s0.169,0.139,0.169,0.139
			c0.998-0.066,1.347,0,1.382,0.136c0.035,0.136-0.725,0-0.725,0c-0.481-0.035-0.658,0.069-0.758,0.207
			c-0.101,0.139-0.207,0.104-0.207,0.104c-0.239-0.382-0.759-0.382-1.001-0.347s-0.277,0.035-0.277,0.035
			c-0.311,0.034-0.759-0.655-1.208-1.171s-0.896-1.348-1.309-2.175s-0.897-1.379-0.897-1.379c-1.001-1.31-2.83-1.482-3.072-1.448
			c-0.242,0.035-0.123,0.331-0.123,0.331s0.318,0.47,0.394,0.847l-0.377,0.151c0,0,0.377,0.601,0.453,1.054
			c0.076,0.453,0.151,1.436,0.151,2.112s-0.075,1.353-0.226,1.655c0,0-0.276,0.508-0.094,0.806c0.182,0.3,0.12,0.718-0.06,1.14
			c-0.179,0.422-0.538,0.601-0.478,0.84c0.06,0.239,0.176,0.303-0.123,0.423c-0.299,0.119-1.338,0.433-1.759,0.735
			c-0.422,0.303-0.765,0.285-1.124,0.464c-0.359,0.179-0.479,0.302-0.901,0.48c-0.421,0.18-1.083,0.318-1.262,0.62
			c-0.18,0.302-0.239,0.34-0.96,0.52c0,0-0.299-0.003-0.061-0.48c0.24-0.479-0.062-0.659-0.241-1.14
			c-0.18-0.482-0.177-0.479-0.359-1.021c-0.184-0.541-0.063-0.658-0.243-0.959c-0.179-0.303-0.541-0.3-0.601,0.118
			c-0.06,0.419-0.18,0.242-0.359,0.603c-0.179,0.357-0.538,1.378-0.78,2.039c-0.243,0.66-0.662,1.318-0.781,1.92
			c-0.12,0.602-0.481,0.902-0.601,1.201c-0.12,0.3-0.18,0.297-0.18,0.6c0,0.302-0.123,0.537-0.302,0.84s-0.362,0.484-0.481,0.963
			c-0.12,0.478-0.239,1.199-0.299,1.861c-0.06,0.659-0.124,1.261,0.179,1.561c0.302,0.299,0.243,0.302,0.481,0.84
			c0.239,0.539,0.243,0.78,0.542,0.84c0,0,0.481,0.9,0.84,0.9c0.359,0,0.598-0.123,1.021-0.303c0.421-0.179,0.658-0.355,0.721,0.123
			c0.062,0.479,0.185,1.741,0.724,1.921c0,0,0.362,0,0.84,0.119c0.479,0.12,0.903,0.18,1.262,0c0.359-0.18,0.659-0.481,1.86-0.661
			c0,0,2.166-0.299,3.186-0.9c0,0,0.117,0.419,0.299,0.841s0.242,1.023,0.182,1.382c-0.06,0.358-0.239,1.379,0.06,2.16
			c0,0,0.299,0.96,0.239,1.561c-0.06,0.601-0.06,1.139-0.06,1.68c0,0.542,0.117,1.083,0.239,1.322c0.123,0.239,0.12,0.362,0,0.721
			c-0.12,0.359-0.182,1.143,0.06,1.682c0,0,0.302,0.78,0.302,1.079s-0.042,0.8,0.138,0.8c0,0,0.163,0.125,0.163-0.117
			s0-0.323-0.041-0.61c-0.041-0.286-0.082-0.286,0.082-0.286s0.164,0,0.246,0.286c0,0-0.079,0.327,0.082,0.287
			c0.161-0.041,0.205-0.366,0-0.733c-0.204-0.368-0.369,0.123-0.369-1.062c0,0,0.167-1.017,0.41-0.651c0,0,0.57,1.348,0.692,2.446
			c0,0,0.12,0.122,0.324,0c0.204-0.123,0.45-0.003,0.204,0.201c-0.245,0.204-0.39,0.157-0.418,0.855
			c-0.019,0.529-0.195,1.511,0.132,1.471c0,0,0.082,0.081,0.327-0.164c0,0,0.286-0.161,0.369,0.123
			c0.082,0.282-0.003,0.61,0.201,0.527c0,0,0.041,0.12,0.082-0.408c0.041-0.529,0-1.095,0.205-0.936
			c0.204,0.161,0.368,0.164,0.409-0.081c0,0-0.082-0.446-0.082-0.774s-0.044-0.692,0.243-0.123c0,0,0.163,0.08,0.368-0.245
			c0.204-0.324,0.368-0.365,0.245-1.221c0,0-0.204-0.941-0.041-1.511c0.164-0.57,0.164-0.938,0.164-1.345s0.161-0.735,0.325-1.061
			c0.164-0.323,0.938-1.221,1.02-3.748c0,0,0.082-1.102,0.082-1.631s0.003-0.935,0.327-1.181c0.324-0.245,0.488-0.447,0.61-0.855
			c0.124-0.409,0.607-2.245,1.181-3.019c0,0,0.066-0.239,0.28-0.453c0.183-0.18,0.484-0.34,0.821-0.322c0,0,1.348-0.203,2.04-0.61
			c0,0,0.569-0.286,0.529-0.773c0,0,0.488,0.208,0.774-2.036c0,0,0.327-2.285,0.449-2.938c0.124-0.651,0.284-1.057,0.488-1.221
			c0,0,0.205-0.084,0.164-0.368s0.16-2.2,0.487-3.626c0,0,0.29-1.266-0.283-1.877C305.062,263.205,304.816,263.099,304.567,262.992z
			 M290.656,273.687c-0.198,0.198-0.673,0.714-0.872,1.032c-0.198,0.317-0.397,0.475-0.793,0.674
			c-0.397,0.198-1.665,0.516-2.616,0.594c-0.951,0.08-2.143,1.27-2.3,1.469c-0.157,0.197-0.832,0.396-1.071,0.396
			s-0.198-0.396-0.041-0.595c0.157-0.198,0.12-0.119,0.161-0.355c0.042-0.236,0.039-0.358,0.157-0.636
			c0.12-0.278,0.12-0.278,0.359-0.554c0.239-0.277,0.435-0.438,0.514-0.794s0.16-0.476,0.239-0.794
			c0.079-0.316,0.356-0.672,0.595-0.99c0.24-0.318,0.714-0.954,0.714-0.954c0.558-0.677,1.306-0.987,1.625-1.149
			c0.317-0.16,0.475-0.078,1.429-0.516c0.953-0.438,1.307-0.831,1.426-1.07c0.119-0.238,0.239-0.119,0.239-0.119
			s0.158,0.752,0.277,1.389c0.11,0.592,0.12,0.793,0.239,1.148c0.119,0.355,0.198,0.796,0.198,0.796
			C291.015,273.491,290.854,273.488,290.656,273.687z"/>
		<path fill="#005BAB" d="M301.896,262.695c0.207-0.068,0.173,0,0.412,0.035s0.277,0.035,0.554,0c0.277-0.035,0.207,0,0.343-0.104
			c0.082-0.063-0.277-0.066-0.551-0.096c-0.182-0.019-0.27-0.066-0.38-0.078c-0.276-0.035-0.62-0.069-0.62-0.069
			c-0.381,0-0.443,0.347-0.443,0.347C301.414,262.973,301.688,262.766,301.896,262.695z"/>
		<path fill="#005BAB" d="M302.447,263.385c0,0.208,0.138,0.242,0.138,0.242c0-0.135,0.069-0.381,0.069-0.381h0.208
			c0.242,0,0.343-0.034,0.343-0.034c0.135-0.139-0.551-0.208-0.689-0.208C302.377,263.004,302.447,263.177,302.447,263.385z"/>
		<path fill="#005BAB" d="M292.488,293.572c-0.11-0.084-0.082-0.166-0.249-0.166c0,0-0.17,0.052-0.141,0.22
			c0.028,0.167,0.06,0.415,0.141,0.557c0.082,0.143,0.195,0.312,0.195,0.504c0,0.192,0.107,0.246,0.192,0.025
			s0.11-0.476,0.028-0.781C292.573,293.626,292.598,293.657,292.488,293.572z"/>
		<path fill="#005BAB" d="M292.992,293.906c0,0-0.142-0.085-0.142,0.167s0,0.89,0,1.028s0.224,0.277,0.224-0.028
			C293.073,294.769,293.133,293.85,292.992,293.906z"/>
		<path fill="#005BAB" d="M295.44,293.626c0,0-0.224-0.195-0.195,0.167c0.028,0.361-0.139,1.256,0,1.17
			c0.138-0.084,0.254-0.081,0.224-0.557C295.44,293.984,295.55,293.679,295.44,293.626z"/>
		<path fill="#005BAB" d="M316.551,272.383c-0.212-0.56-0.139-0.562,0-0.982c0.139-0.418,0.349-0.84,0.068-1.888
			c0,0-0.352-0.626-0.211-1.328c0.143-0.702-0.229-1.136-0.419-1.612c-0.282-0.697-0.559-0.77-0.559-1.188s-0.351-0.699-0.351-0.699
			s-0.138,0-0.279,0.35s-0.558,1.608-0.35,2.448c0,0-0.069,0.419,0,0.91s0.139,0.84,0.139,1.12s0.138,0.422,0,0.771
			c-0.139,0.349-0.003,1.051-0.211,1.47c-0.208,0.418-0.545,0.984-0.488,1.75c0.069,0.906,0.066,1.328-0.071,2.518
			c0,0-0.42,1.328-0.35,1.889c0.068,0.561-0.066,1.404-0.209,1.893c-0.141,0.487-0.28,1.535-0.21,1.957
			c0.069,0.422,0.208,1.123,0.138,1.611c-0.068,0.487-0.065,0.563-0.208,1.121c-0.141,0.557-0.141,1.259,0.208,2.168
			c0.35,0.91,1.121,1.397,1.401,1.329c0.28-0.069,0.909-1.19,0.63-2.729c0,0-0.277-1.052-0.07-2.1c0,0,0.347-1.4,0.139-1.75
			c0,0-0.418-0.213-0.139-1.4c0,0,0.139-0.629,0.139-0.979s-0.068-0.771,0.211-2.031c0.28-1.258,0.419-1.396,0.63-2.237
			c0.21-0.841,0.214-1.19,0.353-1.47C316.619,273.013,316.761,272.943,316.551,272.383z"/>
		<path fill="#005BAB" d="M337.761,285.82c0.212-0.28,0.139-0.979,0.069-1.4s-0.142-0.769,0-1.118
			c0.143-0.349,0.139-1.68,0.069-2.172c-0.069-0.49,0-0.909,0-1.608s0-1.4-0.139-1.818c-0.139-0.419,0-1.961-0.072-3.15
			c-0.072-1.191-0.068-2.449-0.138-3.709c-0.07-1.259-0.142-2.029-0.28-2.451s-0.069-1.049,0.069-1.398
			c0.138-0.348,0.211-0.981,0.141-1.541c-0.068-0.561-0.21-0.769-0.279-1.118c-0.069-0.349,0-0.84,0.139-1.262
			c0.138-0.421,0.211-1.117,0.211-1.117c0-0.837-0.422-1.612-0.91-2.172s-0.909-1.121-0.909-1.121
			c-0.699-0.632-1.4-0.487-1.822-0.418c-0.423,0.069-1.049,0.069-2.168,0.211c-1.122,0.142-1.682,0.349-2.031,0.56
			s-0.422,0.281-0.841,0.209c-0.418-0.072-0.629,0.141-0.979,0.21c-0.349,0.069-1.121,0.142-1.121,0.142
			c-0.698,0.143-2.521,0.558-2.521,0.558c-0.981,0.28-1.608,0.56-1.961,0.771s-1.048,0.488-1.048,0.488
			c-0.633,0.699-1.611,0.84-1.611,0.84c-0.771,0.069-2.66,0.775-2.66,0.775c-0.35,0.068-0.418,0.276-0.418,0.276
			s0.909,0.069,1.12,0.491s0.279,0.418,0.698,0.488c0.419,0.068,1.401,0,1.892-0.139c0.491-0.139,1.19-0.35,1.678-0.63
			c0.488-0.28,1.052-0.349,1.682-0.63c0.629-0.279,1.68-0.629,2.379-0.909s1.19-0.28,1.681-0.353
			c0.491-0.072,0.979-0.281,1.47-0.419s1.19-0.069,1.681-0.069c0.491,0,0.63,0.069,1.121,0.069s0.838,0.069,1.189,0.491
			c0.353,0.422,0.63,0.91,0.63,0.91c0.279,0.909,0.069,1.048,0,1.819c-0.069,0.771-0.211,3.22-0.211,4.198s-0.28,2.87-0.28,2.87
			c-0.211,1.12,0,1.118,0.069,1.819s-0.069,2.311-0.069,2.311c-0.211,0.422-0.28,1.117-0.211,1.539s0.072,0.629,0.072,0.629
			c-0.069,0.63,0.139,2.871,0.419,3.851c0.28,0.978,0,1.47-0.28,1.749c-0.28,0.28-0.35,1.189-0.28,1.75s0.069,1.189-0.139,1.539
			s-0.422,0-0.771-0.421c-0.349-0.422-1.12-1.048-1.401-0.91c-0.28,0.139,0.072,1.75,0.491,2.241c0.419,0.49,0.419,0.84,0.562,1.189
			c0.141,0.35,0.56,1.051,0.56,1.051c0.49,0.491,0.629,1.19,0.84,2.1c0.211,0.91,0.35,0.91,0.909,1.329
			c0.561,0.418,1.471,0.909,2.03,1.119c0.561,0.212,1.329-1.119,1.329-1.119c0.487-0.98,0.421-2.1,0.352-2.591s0-0.699,0.139-1.19
			c0.14-0.49,0.142-0.629,0.142-1.116c0-0.489-0.142-0.982-0.28-1.332S337.551,286.101,337.761,285.82z"/>
		<path fill="#005BAB" d="M329.568,265.453c-0.28-0.561-0.419-0.838-0.699-1.26c-0.279-0.422-0.698-0.349-1.189-0.211
			c-0.49,0.139-1.47,0.281-1.47,0.281c-0.771,0-1.539,0.352-2.03,0.56s-1.189,0.561-1.75,0.63c-0.56,0.068-0.841,0.279-1.47,0.49
			c-0.629,0.212-0.979,0.629-1.4,0.699c-0.422,0.069-0.561,0.211-0.91,0.561s-1.051,0.629-1.051,0.629
			c-1.262,0.35-0.769,0.91-0.769,0.91s0.419,0.142,1.12,0.421c0.703,0.28,0.419,0.28,0.419,0.28c-0.141,0.91,0.419,1.26,0.91,1.26
			s1.259-0.07,1.681-0.07s0.491-0.068,0.561,0.42c0.068,0.488,0.139,0.908,0.139,0.908c0.138,1.471-0.699,1.262-0.699,1.262
			c-2.871,1.264-3.361,1.89-3.572,2.239c-0.211,0.349-0.646,0.96-0.35,1.189c0.277,0.211,0.702,0.63,0.982,0.63
			c0.279,0,0.418,0,0.629,0.49s0.35,0.561,0.771,0.49c0.422-0.068,0.487,0,0.487,0s0,0.35-0.138,0.77
			c-0.139,0.418-0.423,1.051-0.702,1.189c-0.28,0.139-0.35,0.422-0.63,0.771c-0.28,0.35-0.207,0.28-0.35,0.631
			c-0.141,0.349-0.279,0.629-0.279,0.629c-0.35,1.19,0.279,1.889,0.629,2.241s1.75,0.207,2.172,0.068
			c0.422-0.138,0.419,0,0.841-0.28c0.422-0.279,0.63-0.21,1.189-0.422c0.561-0.21,0.979-0.417,1.397-0.767
			c0.419-0.35,1.193-0.631,1.682-0.98c0.487-0.348,1.188-0.421,1.611-0.56c0.421-0.139,1.12-0.561,1.469-0.981
			c0.35-0.422,0.561-0.28,0.699-0.629c0.139-0.35,0.28-0.77,0.28-0.77s-0.139,0-0.419,0s0.208-0.91,0.208-0.91
			c-0.353,0.073-0.91,0-1.189-0.141c-0.28-0.141-1.048-0.069-1.329,0c-0.28,0.07-0.142-0.629,0-1.049
			c0.143-0.418,0.07-0.559,0.07-0.559c-0.212-0.35,0.629-0.281,0.629-0.281c0.491-1.186,0.982-1.4,1.262-1.75
			c0.28-0.349,0.558-0.629,0.63-1.121c0.073-0.49-0.072-0.84-0.561-1.258c-0.487-0.419-1.051-0.703-1.681-1.189
			c-0.63-0.488-0.21-0.561-0.068-1.121c0.141-0.561,0.629-0.63,1.188-1.328c0.561-0.699,0.42-0.491,0.561-0.84
			c0.143-0.35,0.419-0.492,0.419-0.492c0.28-0.561,0-0.629,0.069-0.978C329.638,265.806,329.849,266.013,329.568,265.453z"/>
		<path fill="#005BAB" d="M329.36,276.092c0,0-0.069,0.072-0.28,0.422c-0.211,0.349-0.213,0.418,0.208,0.418
			c0.422,0,0.35-0.141,1.12-0.28c0.771-0.138,1.052-0.283,1.682-0.21c0,0,0.771,0.141,0.84-0.979
			c0.211-1.259-0.277-1.536-0.698-1.608c-0.423-0.072-0.561-0.072-0.91-0.211s-1.12-0.49-1.12-0.49s0.487,0.979,0.139,1.469
			C330.34,274.621,329.433,275.6,329.36,276.092z"/>
		<path fill="#005BAB" d="M371.209,286.421c-0.312-0.053-0.312-0.261-0.312-0.261s0.086-0.119,0.157-0.312
			c0.123-0.326-0.238-0.05-0.232-0.33c0.01-0.355-0.256,0.198-0.256,0.198s-0.04-0.097-0.062-0.176
			c-0.021-0.076-0.003-0.208-0.126-0.16c-0.163,0.065-0.211-0.262,0.051-0.312c0,0-0.204-0.158-0.362-0.365
			c0,0-0.142-0.041-0.106,0.157c0.034,0.197-0.198,0.194-0.198,0.03c0-0.162,0.268-0.231,0.268-0.231s0.065-0.192-0.3,0.003
			c-0.188,0.101-0.232-0.035-0.1-0.167c0.132-0.132-0.066-0.135-0.266-0.102c-0.198,0.035-0.198-0.003-0.431,0.199
			c-0.232,0.201-0.399,0.333-0.563,0.465c-0.163,0.134-0.33,0.169-0.528,0.234s-1.096,0.295-1.791,0.427
			c-0.695,0.134-2.056,0.467-2.487,0.634c-0.431,0.167-0.727,0.163-1.126,0.229c-0.205,0.034-1.184,0.04-1.637,0.142
			c-0.453,0.1-0.806,0.151-1.107,0.201c-0.303,0.051-0.554-0.15-0.554-0.15s-0.454-0.152-0.655-0.152c0,0-0.051,0.051-0.252-0.353
			c-0.202-0.402-0.214-0.521-0.554-1.208c-0.252-0.504-0.051-0.907,0.251-1.208c0.303-0.303,0.706-0.856,1.008-1.108
			s0.554-0.303,1.007-0.252c0,0,0.353-0.1,0.756-0.1c0.402,0,0.653-0.151,0.906-0.304c0.252-0.15,0.353-0.101,0.654-0.101
			c0.303,0,0.604-0.201,0.906-0.252c0.303-0.051,0.705-0.15,1.159-0.15c0.453,0,0.654-0.151,1.007-0.151
			c0.352,0,0.453-0.05,0.705-0.353c0.252-0.302,0.202-0.604,0.604-1.007c0.403-0.403,0.734-0.5,0.655-0.806
			c-0.05-0.202,0-0.756,0.051-1.108c0,0,0.151-0.303-0.101-0.756s-0.453-0.604-0.605-0.956c-0.15-0.353-0.401-0.504-0.05-1.31
			c0.353-0.806,0.756-1.461,0.856-1.964c0.101-0.504,0-0.453,0.302-0.957c0.171-0.29,0.151-0.403,0.253-0.906
			c0.1-0.504,0.149-0.353,0.251-0.806c0,0,0.051-0.201,0-0.605c-0.051-0.402-0.051-0.502,0-0.754
			c0.051-0.253-0.102-0.404-0.151-0.654c-0.051-0.253-0.051,0.149-0.15-0.354c-0.101-0.504-0.202-0.504-0.403-0.756
			s-0.504-0.604-0.554-1.157c0,0,0.202-0.202-0.454-0.756c0,0-0.402-0.252-0.654-0.252s-0.453,0-0.756-0.251
			c-0.301-0.252-0.704-0.303-1.007-0.252c-0.302,0.049-0.402,0-0.705-0.102c-0.302-0.101-0.855,0.15-0.956,0.201
			c-0.221,0.113-1.914,0.857-2.418,1.209c-0.503,0.352-0.755,0.504-1.107,0.604c-0.353,0.102-0.453,0.051-0.353-0.401
			c0.101-0.454,0.201-1.209,0.353-2.015c0.15-0.807-0.151-1.561-0.755-1.914c-0.605-0.353-1.389-0.935-1.942-0.834
			c0,0-0.425-0.139-0.353,0.28s-0.066,0.557-0.278,0.979c0,0-0.632,0.843-0.701,1.892c-0.068,1.049-0.349,2.027-0.418,2.518
			c-0.069,0.492-0.066,0.91-0.699,1.189c-0.633,0.281-3.153,1.75-3.223,2.1c0,0,0.774-0.072,0.912,0.35
			c0.139,0.422,0.416,0.283,0.838,0.143c0.422-0.143,0.909-0.492,1.051-0.143c0,0,0.072,0.139,0.143,0.561
			c0.068,0.422,0.068,0.491-0.143,0.84c-0.211,0.35-0.283,0.496-1.051,1.332c-0.769,0.838-1.542,1.325-1.892,1.467
			s-0.35,0.003-0.208-0.488c0,0,0.142-1.396,0.211-1.818s0.142-0.63-0.069-1.121c-0.211-0.49-0.632-0.771-0.701-1.051
			c-0.069-0.281,0.003-0.139-0.419-0.35s-0.35-0.561-0.35-0.84c0-0.281-0.353-0.488-0.49,0.141c-0.139,0.629-0.699,1.611-0.979,2.03
			s-0.56,0.769-0.491,1.608c0.069,0.84,0.139,1.188,0.069,2.168c-0.069,0.982-0.207,2.592-0.418,3.502
			c-0.212,0.908-0.354,0.908-0.491,1.469c-0.139,0.561-0.208,1.048,0.422,1.539c0.629,0.491,0.909,0.563,1.259,0.634
			c0.349,0.067,0.422,0.206,0.56,0.486c0.139,0.28,0.277,0.491,0.699,0.771s0.912,0.699,1.892,0.699c0,0,0.487-0.143,0.698,0.629
			s0.419,2.313,0.979,3.362c0,0,0.281,0.699,0.561,0.768c0,0,0.35,0.491,0.91,0.771c0.56,0.279,1.259,0.771,2.24,0.91
			c0.982,0.138,1.682,0.279,2.591,0.279s1.892,0.35,3.642-0.279c0,0,0.906-0.282,1.397-0.282s0.633-0.07,1.612-0.42
			c0.978-0.35,3.078-0.91,3.568-0.979c0,0,0.419,0,0.561-0.28c0.143-0.28-0.139-0.139,0.211-0.35c0,0,0.069-0.138,0.139-0.419
			c0.069-0.279,0.245-0.601,0.558-0.705c0.311-0.103,0.258-0.153,0.519-0.207c0.262-0.054,0.419-0.158,0.419-0.365
			S371.521,286.475,371.209,286.421z M362.613,273.982c-0.201,0.705-0.302,0.855-0.353,1.41c-0.05,0.554-0.402,0.756-0.806,0.957
			s-1.007,0.504-1.46,0.756c-0.453,0.251-0.957,0.401-1.41,0.201c-0.453-0.201-0.504-0.655-0.453-1.008s0.051-0.402,0-0.756
			c-0.051-0.352,0.402-0.604,0.402-0.604c0.906-1.008,3.072-1.461,3.425-1.562S362.762,273.463,362.613,273.982z M357.779,269.702
			c0.15-0.554,0.856-1.007,0.856-1.007c0.604-0.354,1.762-0.504,2.014-0.756c0.253-0.252,0.655-0.303,0.957-0.303
			s0.504-0.051,0.756,0.051c0.251,0.102,0.402,0.151,0.755,0.151s0.555,0.151,0.555,0.151c-0.102,0.302,0.2,0.705,0.2,0.705
			c0.151,0.453-0.453,0.755-0.453,0.755c-0.503-0.101-0.906,0.252-1.511,0.655c-0.604,0.402-1.157,0.704-1.611,0.755
			c-0.453,0.05-1.41,0.302-2.014,0.05C357.679,270.658,357.628,270.256,357.779,269.702z M352.289,278.262
			c-0.1,0.504-0.251,0.908-0.402,1.411c-0.151,0.504-0.554,0.655-0.554,0.655c-1.158,0.201-2.115,1.058-2.266,0.956
			c-0.151-0.101-0.102-0.201,0.051-0.554c0.149-0.353,0.049-0.402,0.049-0.402c-0.149-0.605-0.049-0.102,0.051-0.555
			c0.101-0.453,0.05-0.353,0.101-0.705s0.353-0.957,0.454-1.309c0.101-0.354,0.302-0.303,0.302-0.303
			c0.151-0.201,0.906-0.352,1.259-0.453c0.353-0.1,0.554-0.1,0.806,0.151S352.391,277.76,352.289,278.262z M370.725,285.785
			c0-0.166,0.232-0.034,0.232-0.034C370.923,285.984,370.725,285.953,370.725,285.785z"/>
		<path fill="#005BAB" d="M385.325,273.126c-0.251-0.101-0.057-0.081-0.352-0.251c-0.444-0.252-0.354-0.354-0.706-0.454
			c-0.352-0.101-0.15-0.201-0.452-0.302c-0.303-0.101-0.856-0.252-1.209-0.051c0,0,0-0.402,0.303-0.906c0,0,0.101-0.051,0.15-0.504
			c0.05-0.452-0.15-0.805,0.05-0.956c0.202-0.151,0.202-0.807-0.15-1.562c-0.353-0.756-0.806-1.359-0.856-1.913
			c-0.05-0.554-0.604-1.511-1.008-1.663c0,0-0.353-0.05-0.353,0.354c0,0.402-0.1,0.353-0.15,0.805
			c-0.05,0.454-0.252,0.957-0.303,1.311c-0.05,0.352-0.15,0.251-0.302,0.604c-0.151,0.354-0.453,0.857-0.654,1.461
			c-0.202,0.604-0.705,1.662-1.007,2.216c-0.303,0.554-0.252,0.503-0.504,0.957c-0.252,0.453-0.554,0.705-0.655,0.956
			c0,0-0.201,0.303-0.402,0.555s-0.303,0.201-0.402,0.705c-0.102,0.503-0.202,0.906-0.253,1.46c-0.05,0.554,0.051,0.755,0,1.108
			c-0.05,0.352-0.101,0.452,0.151,0.654c0.252,0.201,0.604,0.1,0.604,0.906c0,0.806,0.007,1.627-0.085,1.811
			c0,0,0.34-0.246,0.309-0.737c0,0,0.122,0.214,0.091,0.491c0,0,0.306-0.277,0.369-0.768c0.062-0.492,0.431-0.771,0.645-0.953
			c0.215-0.184,1.319-1.316,1.597-1.564c0.276-0.25,0.585-0.555,0.676-0.678c0.092-0.123,0.157-0.245,0.463-0.245
			s0.696,0.491,0.759,0.981c0.062,0.492,0.224,0.919,0.224,1.382c0,0.464,0.126,1.706,0.091,2.209
			c-0.035,0.504-0.101,0.771-0.235,1.074c-0.136,0.303-0.168,0.843-0.202,1.277c-0.035,0.435-0.035,0.938-0.201,1.442
			c-0.167,0.504-0.607,1.916-0.64,3.493c0,0-0.097,0.973-0.031,1.678c0.066,0.705,0.132,1.042,0.535,1.344
			c0.269,0.167,0.403,0.233,0.504,0.066c0.101-0.166,0.306-0.501,0.572-0.469c0.268,0.031,0.473,0.097,0.403-0.271
			c0,0-0.17-0.434,0.132-0.736c0,0,0.202-0.068,0.403-0.068c0.202,0,0.235-0.066,0.337-0.269c0.101-0.201,0.302-0.267,0.402-0.704
			s0.268-1.983,0.303-2.956c0.034-0.972,0.236-2.297,0.387-3.606c0.151-1.31,0.303-2.367,0.353-3.525
			c0.051-1.158,0-0.856,0.051-1.713c0.05-0.856-0.202-1.208,0.101-1.511c0,0,0.302-0.352,0.302-1.006
			C385.477,273.429,385.577,273.227,385.325,273.126z"/>
		<path fill="#005BAB" d="M403.024,262.988c-0.419-0.076-1.222,0-1.678,0c-0.457,0-1.489,0-1.795,0.038
			c-0.305,0.037-0.497-0.038-0.459-0.343c0.038-0.306,0.075-0.385,0-0.689c-0.075-0.306-0.038-0.648-0.075-1.067
			c-0.038-0.419,0.037-0.46-0.154-0.648c-0.192-0.188-0.419-0.384-0.687-0.384s-0.381-0.151-0.573-0.305
			c-0.191-0.155-0.305-0.189-0.61-0.266c-0.305-0.075-0.686-0.343-0.686-0.343s-1.146-0.534-1.603-0.534s-0.688,0.648-0.765,0.99
			c-0.076,0.344-0.23,0.269-0.23,0.269c-0.305-0.19-0.647,0.037-0.761,0.229c-0.114,0.192-0.192,0.151-0.192,0.151
			c-0.268,0.076-0.724,0.572-0.954,0.766c-0.229,0.191,0.076,0.264,0.076,0.264l-0.283,0.201c-0.202,0.051-0.579,0.227-0.579,0.227
			s-0.453,0.051-0.353,0.303s0.755,0.252,1.31-0.453c0,0,0.15,0.102,0.604-0.051c0,0,1.158-0.252,1.108-0.05
			c0,0-0.151,0.202-0.453,0.202c-0.303,0-1.158,0-1.259,0.301c0,0,0.302,0.252,0.755,0.252s0.906-0.101,1.41,0.353
			s0.906,0.655,0.755,0.958c-0.15,0.301-0.452,0.604-0.855,0.704c-0.403,0.102-0.746-0.009-1.127,0.145
			c-0.381,0.155-0.765,0.229-1.375,0.267c-0.61,0.039-1.218,0.004-1.41,0.117s-0.844,0.344-1.301,0.381
			c-0.455,0.038-0.647-0.037-1.029,0.038c-0.38,0.076-0.724,0.038-1.296,0.306c-0.573,0.268-0.916,0.686-0.879,0.305
			c0.038-0.381-0.537,0.307-0.497,0.648c0.047,0.379,0.003,0.611,0.385,0.725c0.381,0.113,0.607,0.119,0.837,0.309
			c0.229,0.188,0.613,0.034,0.995-0.116c0.38-0.151,0.837-0.419,1.447-0.457s0.875-0.227,1.259-0.306S391.689,266,392.53,266
			s2.635-0.113,3.701-0.074c1.067,0.037,2.943-0.051,3.132-0.051c0.306,0,0.567,0.051,0.759-0.066
			c0.191-0.116,0.878-0.227,1.184-0.151c0.305,0.075,0.229,0.075,0.61,0.075s0.46-0.075,0.727-0.188
			c0.268-0.114,0.151-0.574,0.114-0.842c-0.038-0.268,0.343-0.381,0.686-0.572c0.344-0.192,0.347-0.535,0.347-0.535
			C403.83,263.249,403.442,263.063,403.024,262.988z"/>
		<path fill="#005BAB" d="M394.592,270.457c0.352,0.303,0.705,0.353,1.208,0.604c0.505,0.252,0.807,0.453,1.612,0.554
			c0.806,0.102,1.107-0.15,1.562,0.152c0,0,0.353,0.15,0.604-0.102c0.252-0.252,0.354-0.856,0.655-1.107c0,0,0.05,0.049,0.102-0.353
			c0.049-0.403,0.149-0.856-0.102-0.856c-0.252,0-0.353-0.151-0.454-0.555c-0.101-0.402-0.201-0.402-0.452-0.453
			c-0.252-0.05-0.353-0.05-0.555-0.301c-0.201-0.252-0.604-0.455-0.906-0.404s-0.504,0.102-1.007,0
			c-0.504-0.101-1.662-0.302-1.965-0.201c-0.302,0.101-1.611,0.555-2.114,0.705c0,0-0.453,0.303-0.402,0.604
			c0.049,0.303,0.2,0.706,0.755,0.857C393.686,269.753,394.239,270.154,394.592,270.457z"/>
		<path fill="#005BAB" d="M391.066,273.378c0,0.403,0.101,0.554,0.454,1.108c0.352,0.554,0.905,0.956,1.259,1.309
			c0.353,0.354,0.855,0.504,1.611,0.504c0.755,0,1.309,0.101,1.611,0.302c0.303,0.202,0.51,0.438,0.906,0.353
			c0.453-0.1,0.353-0.1,0.756-0.1c0.402,0,0.503-0.303,0.855-0.303s0.504-0.101,0.756-0.402c0.252-0.303,0.402-0.4,0.503-1.108
			c0.076-0.548,0.051-0.806,0.303-0.856c0,0,0.402,0.051,0.453-0.453s-0.151-0.654-0.504-0.705c-0.353-0.05-0.654-0.15-0.956,0
			c-0.303,0.151-0.382,0.142-0.957-0.05c-0.756-0.252-1.058-0.303-1.661-0.353c-0.605-0.051-1.562,0.101-2.519,0.101
			c-0.957,0-1.964,0.252-2.367,0.302C391.57,273.025,391.066,272.976,391.066,273.378z"/>
		<path fill="#005BAB" d="M402.044,287.227c-0.301-0.05-0.251-0.251-0.603-0.452c-0.353-0.202-0.152-0.655-0.051-0.957
			c0.101-0.303,0.402-0.957,0.604-1.511c0.201-0.554,0.049-1.209,0.049-1.562c0-0.352,0.152-0.202,0.102-0.856
			c-0.05-0.654-0.102-0.705-0.604-1.259s-0.302-0.503-0.402-0.755s-0.202-0.403-0.554-0.604c-0.353-0.202-0.555-0.353-0.555-0.353
			c-0.453-0.252-1.057-0.252-1.46-0.202s-0.655-0.201-0.655-0.201c-0.251,0-0.906,0.505-1.359,0.856s-1.108,0.554-1.812,0.906
			c-0.705,0.353-1.562,0.957-2.065,1.007c-0.503,0.051-0.704,0.151-1.007-0.101s-0.504-0.604-0.604-0.906s-0.302-0.504-1.007-0.604
			s-0.957-0.855-0.957-0.855s-0.403-0.151-0.403,0.353c0,0.503-0.05,0.755-0.15,1.107s-0.151,0.856,0,1.259
			c0.15,0.403,0.302,0.706,0.252,1.511c-0.051,0.807-0.102,1.813-0.051,2.217c0.051,0.402,0.101,0.554,0,1.006
			c-0.101,0.454,0.101,1.059,0.151,1.462c0.051,0.402,0.353,1.057,0.453,1.46c0.101,0.402,0.101,0.554,0.05,0.806
			c-0.05,0.252,0.051,0.705,0.403,0.855c0.353,0.151,0.454,0,0.957,0.303c0.504,0.303,0.453,0.151,0.756,0.453
			c0.302,0.302,0.302,0.503,0.453,0.252c0.15-0.252,0.15-0.705,0.452-0.957c0,0,0.151,0.051,0.151-0.554s0.101-0.957,0.202-1.511
			c0.1-0.554,0.15-1.26,0.302-1.813s0.101-0.705,0.151-1.057c0.05-0.353-0.101-0.555-0.252-0.807s-0.151-0.302-0.151-0.554
			s0.05-0.201,0-0.454c-0.05-0.251-0.151-0.353,0.202-0.301c0.352,0.05,1.057,0.402,1.661-0.252
			c0.604-0.655,1.209-1.108,1.511-1.259c0.303-0.151,0.403,0.051,0.453,0.453c0.051,0.402,0.151,1.157-0.05,1.409
			s-0.907,0.957-1.31,1.411c-0.403,0.452-0.957,0.755-1.108,1.259c-0.15,0.503-0.15,0.755-0.15,1.359s-0.303,0.906,0.201,1.158
			c0.504,0.251,0.654,0.403,0.957,0.604c0.302,0.202,0.302,0.151,0.756,0.202c0.453,0.05,1.107,0.15,1.661-0.051
			c0.554-0.202,0.807-0.233,1.31-0.151c0.302,0.05,0.252,0,0.705,0.101c0.453,0.102,0.402,0.051,0.906,0s0.353,0.051,0.655-0.051
			c0.302-0.101,0.604-0.353,0.854-0.453c0.397-0.16,0.304-0.705,0.253-0.956c-0.051-0.253,0.201-0.403,0.201-0.807
			C402.498,287.429,402.348,287.277,402.044,287.227z"/>
		<path fill="#005BAB" d="M331.239,283.551c0,0-0.101-0.151-0.402,0s-0.353,0.251-1.007,0.402c-0.655,0.151-0.807,0.151-1.008,0.303
			s-0.201,0.101-0.453,0.151c-0.252,0.05-0.403,0-0.604,0.201s-0.402,0.302-0.805,0.302c-0.403,0-0.757,0-1.108,0.202
			c-0.354,0.201-0.655,0.402-1.159,0.504c-0.503,0.1-0.654,0.15-1.007,0.302c-0.353,0.15-0.453,0.15-0.856,0.15
			c-0.402,0-0.604,0.152-0.906,0.303c-0.302,0.151-0.654,0.554-1.007,0.353s-0.957-0.102-1.31,0.1
			c-0.353,0.202-0.654,0.202-1.058,0.202c-0.402,0-0.654-0.202-0.957,0c-0.302,0.201-0.705,0-0.956,0c0,0,0.503,0.856,0.705,1.41
			c0.201,0.555,0.654,1.36,0.906,1.41c0.252,0.051,1.359,0.101,3.374-0.957c0,0,0.151-0.101,0.655-0.2
			c0.503-0.102,1.359-0.454,1.762-0.656c0.403-0.201,0.555-0.503,0.856-0.503s0.705-0.252,1.107-0.504
			c0.403-0.251,1.108-0.705,1.411-1.007c0.302-0.303,0.956-0.705,1.862-1.108c0,0,0.957-0.604,1.26-0.705
			C330.837,284.104,331.189,283.802,331.239,283.551z"/>
	</g>
	<g>
		<rect x="301.005" y="298.376" fill="#005BAB" width="2.817" height="9.136"/>
		<polygon fill="#005BAB" points="353.859,298.376 351.044,298.376 351.044,307.512 353.257,307.512 353.859,307.512 
			358.438,307.512 358.438,306.033 353.859,306.033 		"/>
		<polygon fill="#005BAB" points="313.784,303.673 308.107,298.376 306.46,298.376 306.46,307.512 308.555,307.512 308.555,301.676 
			314.699,307.512 315.879,307.512 315.879,298.376 313.784,298.376 		"/>
		<polygon fill="#005BAB" points="295.412,302.075 292.303,302.075 292.303,298.376 289.486,298.376 289.486,307.512 
			292.303,307.512 292.303,303.54 295.412,303.54 295.412,307.512 298.229,307.512 298.229,298.376 295.412,298.376 		"/>
		<path fill="#005BAB" d="M321.024,298.347l-4.194,9.176h2.33l0.926-2.234h4.011l0.989,2.234h2.863l-4.261-9.176H321.024z
			 M320.665,303.89l1.358-3.279l1.453,3.279H320.665z"/>
		<polygon fill="#005BAB" points="332.146,299.679 334.88,299.679 334.88,307.466 337.732,307.466 337.732,299.679 340.367,299.679 
			340.367,298.396 332.146,298.396 		"/>
		<polygon fill="#005BAB" points="344.379,303.541 347.991,303.541 347.991,302.141 344.379,302.141 344.379,299.707 
			349.091,299.707 349.091,298.415 341.632,298.415 341.632,307.45 349.407,307.45 349.407,306.059 344.379,306.059 		"/>
		<polygon fill="#005BAB" points="363.056,303.541 366.668,303.541 366.668,302.141 363.056,302.141 363.056,299.707 
			367.768,299.707 367.768,298.415 360.309,298.415 360.309,307.45 368.084,307.45 368.084,306.059 363.056,306.059 		"/>
		<polygon fill="#005BAB" points="401.675,298.422 397.081,304.889 392.536,298.422 390.414,298.422 390.414,307.502 
			392.387,307.502 392.387,302.241 395.832,307.502 397.28,307.502 401.026,302.142 401.026,307.502 403.623,307.502 
			403.623,298.422 		"/>
		<path fill="#005BAB" d="M383.872,298.197c-3.021,0-5.066,1.597-5.066,4.719c0,3.32,2.269,4.719,5.066,4.719
			s5.066-1.348,5.066-4.719C388.938,300.31,387.543,298.197,383.872,298.197z M386.095,304.29c-0.3,2.296-2.347,1.997-2.347,1.997
			c-1.599,0-1.799-0.799-1.799-0.799c-0.449-0.8-0.283-3.354-0.283-3.354c0.046-3.063,2.182-2.639,2.182-2.639
			c1.848-0.149,2.047,1.149,2.047,1.149C386.294,302.041,386.095,304.29,386.095,304.29z"/>
		<path fill="#005BAB" d="M369.251,302.916c0.025,3.32,2.522,4.719,5.636,4.719c1.001,0,1.94-0.143,2.756-0.444v-1.422
			c-0.655,0.278-2.162,0.436-2.162,0.436c-2.229,0.05-3.342-0.929-3.357-3.288c-0.014-2.082,1.175-3.353,3.357-3.353
			c0.931,0,1.64,0.141,2.162,0.446v-1.507c-0.751-0.206-1.659-0.306-2.756-0.306C371.525,298.197,369.228,299.985,369.251,302.916z"
			/>
		<path fill="#005BAB" d="M279.248,302.916c0.026,3.32,2.523,4.719,5.635,4.719c1.001,0,1.941-0.143,2.757-0.444v-1.422
			c-0.655,0.278-2.163,0.436-2.163,0.436c-2.228,0.05-3.341-0.929-3.357-3.288c-0.014-2.082,1.175-3.353,3.357-3.353
			c0.931,0,1.64,0.141,2.163,0.446v-1.507c-0.751-0.206-1.659-0.306-2.757-0.306C281.523,298.197,279.225,299.985,279.248,302.916z"
			/>
	</g>
	<path fill="#005BAB" d="M266.555,261.791c-1.328-5.309-8.273-8.438-17.536-8.851l0.858,3.294c3.299,0.758,5.54,2.244,6.075,4.381
		c1.223,4.893-7.025,11.064-18.371,13.902c-0.733,0.184-1.463,0.348-2.187,0.495c0.92-7.921,3.164-13.356,6.491-13.356
		c0.982,0,1.778,0.441,2.418,1.248l2.639-0.719c-2.513-5.444-6.041-8.801-9.953-8.801c-6.243,0-11.774,9.572-13.282,22.412
		c-4.856-0.475-8.299-2.143-8.976-4.846c-0.949-3.793,3.873-8.335,11.375-11.508c-0.199-0.756-0.475-1.805-0.665-2.514
		c-12.826,4.832-21.055,12.979-19.305,19.975c1.323,5.286,8.113,8.497,17.247,8.99c0.745,14.242,6.541,26.034,13.672,26.034
		c6.158,0,11.807-8.881,13.348-22.213l-4.479,1.094c-1.008,6.864-2.928,11.643-5.245,11.579c-2.848-0.077-5.371-7.68-5.708-17.202
		c1.665-0.273,3.355-0.619,5.064-1.047C256.721,279.967,268.604,269.983,266.555,261.791z"/>
</g>
</svg>
